<svg width="26" height="20" viewBox="0 0 26 20" fill="none" xmlns="http://www.w3.org/2000/svg">
<path d="M25 10C25 5.75763 25 3.63587 23.5936 2.3185C22.1884 1 19.9252 1 15.4 1H10.6C6.0748 1 3.8116 1 2.4064 2.3185C1 3.63587 1 5.75763 1 10C1 14.2424 1 16.3641 2.4064 17.6815C3.8116 19 6.0748 19 10.6 19H15.4C19.9252 19 22.1884 19 23.5936 17.6815C24.3784 16.9469 24.7252 15.9625 24.8776 14.5M10.6 14.5H5.8M15.4 14.5H13.6M1 7.75H7M25 7.75H11.8" stroke="#798488" stroke-width="1.5" stroke-linecap="round"/>
</svg>
