<svg width="25" height="25" viewBox="0 0 25 25" fill="none" xmlns="http://www.w3.org/2000/svg">
<path d="M17.5268 7.18636C18.3212 7.18973 19.094 6.92881 19.723 6.44487C20.3521 5.96093 20.8014 5.28159 21 4.51432L24.1071 4.51432C24.3439 4.51432 24.571 4.42048 24.7385 4.25344C24.9059 4.08641 25 3.85986 25 3.62363C25 3.38741 24.9059 3.16086 24.7385 2.99383C24.571 2.82679 24.3439 2.73295 24.1071 2.73295L21 2.73295C20.8131 1.95437 20.3687 1.26129 19.7386 0.765472C19.1085 0.269652 18.3293 0 17.5268 0C16.7242 0 15.9451 0.269652 15.315 0.765472C14.6848 1.26129 14.2405 1.95437 14.0536 2.73295L0.892857 2.73295C0.656057 2.73295 0.428955 2.82679 0.261511 2.99383C0.0940685 3.16086 0 3.38741 0 3.62363C0 3.85986 0.0940685 4.08641 0.261511 4.25344C0.428955 4.42048 0.656057 4.51432 0.892857 4.51432L14.0536 4.51432C14.2522 5.28159 14.7015 5.96093 15.3306 6.44487C15.9596 6.92881 16.7324 7.18973 17.5268 7.18636ZM15.7411 3.62363C15.7411 3.27131 15.8458 2.92691 16.042 2.63396C16.2382 2.34102 16.5171 2.1127 16.8434 1.97787C17.1697 1.84304 17.5288 1.80777 17.8752 1.8765C18.2216 1.94524 18.5397 2.11489 18.7895 2.36402C19.0392 2.61315 19.2093 2.93056 19.2782 3.27611C19.3471 3.62166 19.3117 3.97983 19.1766 4.30533C19.0414 4.63083 18.8125 4.90904 18.5189 5.10478C18.2252 5.30052 17.88 5.405 17.5268 5.405C17.29 5.40854 17.0549 5.36508 16.8352 5.27714C16.6154 5.18921 16.4154 5.05856 16.2467 4.89279C16.0781 4.72702 15.9441 4.52945 15.8527 4.31156C15.7613 4.09368 15.7143 3.85983 15.7143 3.62363H15.7411Z" fill="#798488"/>
<path d="M14.4375 25C15.2319 25.0033 16.0047 24.7424 16.6337 24.2585C17.2628 23.7745 17.7121 23.0952 17.9107 22.3279H24.1071C24.3439 22.3279 24.571 22.2341 24.7385 22.067C24.9059 21.9 25 21.6735 25 21.4372C25 21.201 24.9059 20.9745 24.7385 20.8074C24.571 20.6404 24.3439 20.5466 24.1071 20.5466H17.9107C17.7238 19.768 17.2795 19.0749 16.6493 18.5791C16.0192 18.0833 15.2401 17.8136 14.4375 17.8136C13.6349 17.8136 12.8558 18.0833 12.2257 18.5791C11.5955 19.0749 11.1512 19.768 10.9643 20.5466H0.892857C0.656057 20.5466 0.428955 20.6404 0.261511 20.8074C0.0940685 20.9745 0 21.201 0 21.4372C0 21.6735 0.0940685 21.9 0.261511 22.067C0.428955 22.2341 0.656057 22.3279 0.892857 22.3279H10.9643C11.1629 23.0952 11.6122 23.7745 12.2413 24.2585C12.8703 24.7424 13.6431 25.0033 14.4375 25ZM12.6518 21.4372C12.6518 21.0849 12.7565 20.7405 12.9527 20.4476C13.1489 20.1546 13.4278 19.9263 13.7541 19.7915C14.0804 19.6566 14.4395 19.6214 14.7859 19.6901C15.1323 19.7588 15.4505 19.9285 15.7002 20.1776C15.9499 20.4267 16.12 20.7442 16.1889 21.0897C16.2578 21.4353 16.2224 21.7934 16.0873 22.1189C15.9521 22.4444 15.7232 22.7226 15.4296 22.9184C15.1359 23.1141 14.7907 23.2186 14.4375 23.2186C14.2 23.2233 13.964 23.1808 13.7432 23.0934C13.5224 23.006 13.3213 22.8755 13.1517 22.7096C12.982 22.5437 12.8473 22.3457 12.7553 22.1273C12.6634 21.9088 12.616 21.6742 12.6161 21.4372H12.6518Z" fill="#798488"/>
<path d="M6.69643 16.0932C7.4908 16.0966 8.26362 15.8357 8.89266 15.3517C9.5217 14.8678 9.97106 14.1885 10.1696 13.4212L24.1071 13.4212C24.3439 13.4212 24.571 13.3273 24.7385 13.1603C24.9059 12.9933 25 12.7667 25 12.5305C25 12.2943 24.9059 12.0677 24.7385 11.9007C24.571 11.7337 24.3439 11.6398 24.1071 11.6398L10.1696 11.6398C9.98273 10.8612 9.53838 10.1682 8.90826 9.67233C8.27814 9.17651 7.49898 8.90686 6.69643 8.90686C5.89388 8.90686 5.11472 9.17651 4.4846 9.67233C3.85448 10.1682 3.41013 10.8612 3.22322 11.6398H0.892857C0.656057 11.6398 0.428955 11.7337 0.261511 11.9007C0.0940685 12.0677 0 12.2943 0 12.5305C0 12.7667 0.0940685 12.9933 0.261511 13.1603C0.428955 13.3273 0.656057 13.4212 0.892857 13.4212H3.22322C3.4218 14.1885 3.87115 14.8678 4.50019 15.3517C5.12923 15.8357 5.90206 16.0966 6.69643 16.0932ZM4.91072 12.5305C4.91072 12.1782 5.01545 11.8338 5.21166 11.5408C5.40788 11.2479 5.68677 11.0196 6.01307 10.8847C6.33936 10.7499 6.69841 10.7146 7.0448 10.7834C7.3912 10.8521 7.70938 11.0218 7.95912 11.2709C8.20886 11.52 8.37893 11.8374 8.44783 12.183C8.51673 12.5285 8.48137 12.8867 8.34621 13.2122C8.21106 13.5377 7.98218 13.8159 7.68852 14.0116C7.39486 14.2074 7.04961 14.3119 6.69643 14.3119C6.45968 14.3154 6.22459 14.2719 6.00484 14.184C5.78508 14.0961 5.58505 13.9654 5.41639 13.7996C5.24772 13.6339 5.11378 13.4363 5.02238 13.2184C4.93096 13.0005 4.8839 12.7667 4.88393 12.5305H4.91072Z" fill="#798488"/>
</svg>
