<svg width="20" height="26" viewBox="0 0 20 26" fill="none" xmlns="http://www.w3.org/2000/svg">
<path d="M16.25 9.1V6.5C16.25 4.77609 15.5915 3.12279 14.4194 1.90381C13.2473 0.684819 11.6576 0 10 0C8.3424 0 6.75269 0.684819 5.58058 1.90381C4.40848 3.12279 3.75 4.77609 3.75 6.5V9.1C2.75544 9.1 1.80161 9.51089 1.09835 10.2423C0.395088 10.9737 0 11.9657 0 13V22.1C0 23.1343 0.395088 24.1263 1.09835 24.8577C1.80161 25.5891 2.75544 26 3.75 26H16.25C17.2446 26 18.1984 25.5891 18.9017 24.8577C19.6049 24.1263 20 23.1343 20 22.1V13C20 11.9657 19.6049 10.9737 18.9017 10.2423C18.1984 9.51089 17.2446 9.1 16.25 9.1ZM6.25 6.5C6.25 5.46566 6.64509 4.47368 7.34835 3.74228C8.05161 3.01089 9.00544 2.6 10 2.6C10.9946 2.6 11.9484 3.01089 12.6517 3.74228C13.3549 4.47368 13.75 5.46566 13.75 6.5V9.1H6.25V6.5ZM17.5 22.1C17.5 22.4448 17.3683 22.7754 17.1339 23.0192C16.8995 23.263 16.5815 23.4 16.25 23.4H3.75C3.41848 23.4 3.10054 23.263 2.86612 23.0192C2.6317 22.7754 2.5 22.4448 2.5 22.1V13C2.5 12.6552 2.6317 12.3246 2.86612 12.0808C3.10054 11.837 3.41848 11.7 3.75 11.7H16.25C16.5815 11.7 16.8995 11.837 17.1339 12.0808C17.3683 12.3246 17.5 12.6552 17.5 13V22.1Z" fill="#798488"/>
</svg>
