<svg width="23" height="20" viewBox="0 0 23 20" fill="none" xmlns="http://www.w3.org/2000/svg">
<path d="M8.39632 20L7.96866 16.8C7.73702 16.7167 7.51856 16.6167 7.31328 16.5C7.10801 16.3833 6.90772 16.2583 6.71243 16.125L3.53174 17.375L0.591614 12.625L3.34464 10.675C3.32682 10.5583 3.31791 10.4457 3.31791 10.337V9.663C3.31791 9.55433 3.32682 9.44167 3.34464 9.325L0.591614 7.375L3.53174 2.625L6.71243 3.875C6.90844 3.74167 7.11335 3.61667 7.32718 3.5C7.54101 3.38333 7.75484 3.28333 7.96866 3.2L8.39632 0H14.2766L14.7042 3.2C14.9359 3.28333 15.1543 3.38333 15.3596 3.5C15.5649 3.61667 15.7652 3.74167 15.9605 3.875L19.1411 2.625L22.0813 7.375L19.3282 9.325C19.3461 9.44167 19.355 9.55433 19.355 9.663V10.337C19.355 10.4457 19.3372 10.5583 19.3015 10.675L22.0546 12.625L19.1144 17.375L15.9605 16.125C15.7645 16.2583 15.5595 16.3833 15.3457 16.5C15.1319 16.6167 14.9181 16.7167 14.7042 16.8L14.2766 20H8.39632ZM11.3899 13.5C12.4234 13.5 13.3054 13.1583 14.036 12.475C14.7666 11.7917 15.1319 10.9667 15.1319 10C15.1319 9.03333 14.7666 8.20833 14.036 7.525C13.3054 6.84167 12.4234 6.5 11.3899 6.5C10.3386 6.5 9.45191 6.84167 8.72989 7.525C8.00787 8.20833 7.64721 9.03333 7.64792 10C7.64792 10.9667 8.00858 11.7917 8.72989 12.475C9.4512 13.1583 10.3379 13.5 11.3899 13.5Z" fill="#798488"/>
</svg>
