<svg width="25" height="25" viewBox="0 0 25 25" fill="none" xmlns="http://www.w3.org/2000/svg">
<path d="M12.5 0C12.895 0.000510061 13.2898 0.0166709 13.6833 0.0484383C14.9375 0.14844 15.8591 1.00783 16.1461 2.01566L16.6322 3.74537C16.6626 3.8485 16.7656 3.99225 16.9901 4.09538C17.38 4.2735 17.7565 4.47507 18.1177 4.69851C18.3253 4.82664 18.511 4.83914 18.6224 4.80945L20.4843 4.33601C21.5713 4.061 22.834 4.36882 23.5564 5.3204C24.0122 5.92197 24.4105 6.55792 24.7448 7.22355C25.2765 8.27825 24.9321 9.44546 24.1303 10.1783L22.7563 11.4377C22.6736 11.5127 22.5909 11.6674 22.6078 11.8971C22.6348 12.2986 22.6348 12.7018 22.6078 13.1033C22.5909 13.333 22.6719 13.4877 22.7563 13.5627L24.1303 14.8221C24.9321 15.5549 25.2765 16.7221 24.7448 17.7768C24.4099 18.4418 24.0122 19.0782 23.5564 19.6784C22.834 20.6316 21.5713 20.9394 20.4843 20.6628L18.6241 20.1909C18.511 20.1613 18.3253 20.1738 18.1177 20.3019C17.7564 20.5254 17.3798 20.7269 16.9901 20.905C16.7656 21.0081 16.6626 21.1519 16.6339 21.255L16.1444 22.9832C15.8608 23.9926 14.9375 24.852 13.6833 24.952C12.896 25.016 12.1041 25.016 11.3167 24.952C10.0626 24.852 9.14092 23.9926 8.85564 22.9832L8.36781 21.255C8.33743 21.1519 8.23446 21.0081 8.00996 20.905C7.6199 20.7276 7.24319 20.5261 6.88237 20.3019C6.67475 20.1738 6.48907 20.1613 6.37766 20.1909L4.5158 20.6644C3.42873 20.9394 2.16611 20.6316 1.44365 19.68C0.988795 19.0786 0.591186 18.4419 0.255295 17.7768C-0.276424 16.7221 0.0679272 15.5549 0.868038 14.8221L2.24376 13.5627C2.32816 13.4877 2.40918 13.333 2.3923 13.1033C2.36529 12.7016 2.36529 12.2988 2.3923 11.8971C2.40918 11.6674 2.32816 11.5127 2.24376 11.4377L0.868038 10.1783C0.0679272 9.44546 -0.276424 8.27825 0.255295 7.22355C0.589729 6.55833 0.987412 5.92196 1.44365 5.32196C2.16611 4.36882 3.42873 4.061 4.5158 4.33757L6.37598 4.80945C6.48907 4.83914 6.67475 4.82664 6.88237 4.69851C7.24361 4.47507 7.62003 4.2735 8.00996 4.09538C8.23446 3.99225 8.33743 3.8485 8.36613 3.74537L8.85564 2.01722C9.13923 1.00783 10.0626 0.14844 11.3167 0.0468757C11.7067 0.0156252 12.1017 0 12.5 0ZM11.5362 2.38285C11.4754 2.38754 11.3539 2.4391 11.3049 2.61098L10.8171 4.33757C10.569 5.21414 9.89039 5.84853 9.13247 6.19541C8.84045 6.32979 8.55856 6.48135 8.28848 6.64854C7.58458 7.08292 6.65112 7.30949 5.70753 7.07042L3.84567 6.59698C3.66167 6.5501 3.55027 6.62198 3.51651 6.66729C3.14515 7.1548 2.82105 7.67356 2.54928 8.21419C2.52565 8.26263 2.51384 8.38607 2.64888 8.51107L4.02459 9.77046C4.71836 10.4049 4.97325 11.2658 4.91923 12.0455C4.89898 12.3483 4.89898 12.6521 4.91923 12.9549C4.97325 13.7346 4.71836 14.5955 4.02459 15.2299L2.64888 16.4893C2.51215 16.6143 2.52565 16.7378 2.54928 16.7862C2.82274 17.3268 3.14515 17.844 3.51651 18.3315C3.55027 18.3784 3.65999 18.4503 3.84567 18.4034L5.70584 17.93C6.65112 17.6909 7.58458 17.9175 8.28848 18.3518C8.56024 18.519 8.84214 18.6706 9.13416 18.805C9.8887 19.1519 10.569 19.7878 10.8171 20.6628L11.3049 22.3894C11.3539 22.5597 11.4754 22.6129 11.5362 22.6175C12.1775 22.6691 12.8225 22.6691 13.4639 22.6175C13.5246 22.6129 13.6462 22.5613 13.6951 22.3894L14.183 20.6628C14.4311 19.7862 15.1097 19.1519 15.8676 18.805C16.1596 18.6706 16.4415 18.519 16.7116 18.3518C17.4155 17.9175 18.3489 17.6909 19.2925 17.93L21.1544 18.4034C21.3384 18.4487 21.4498 18.3784 21.4836 18.3331C21.8549 17.844 22.1773 17.3268 22.4508 16.7862C22.4744 16.7378 22.4862 16.6143 22.3512 16.4893L20.9755 15.2299C20.2817 14.5955 20.0268 13.7346 20.0808 12.9549C20.1011 12.6521 20.1011 12.3483 20.0808 12.0455C20.0268 11.2658 20.2817 10.4049 20.9755 9.77046L22.3512 8.51107C22.4879 8.38607 22.4744 8.26263 22.4508 8.21419C22.1783 7.67365 21.8546 7.15652 21.4836 6.66885C21.4498 6.62198 21.3401 6.5501 21.1544 6.59698L19.2942 7.07042C18.3489 7.30949 17.4155 7.08292 16.7116 6.64854C16.4406 6.48063 16.1581 6.32926 15.8659 6.19541C15.1114 5.84853 14.4311 5.21258 14.183 4.33757L13.6951 2.61098C13.6462 2.4391 13.5246 2.38754 13.4639 2.38285C12.8225 2.33129 12.1775 2.33129 11.5362 2.38285ZM17.564 12.5002C17.564 13.7434 17.0305 14.9357 16.0808 15.8148C15.1311 16.6939 13.8431 17.1878 12.5 17.1878C11.157 17.1878 9.86893 16.6939 8.91925 15.8148C7.96956 14.9357 7.43604 13.7434 7.43604 12.5002C7.43604 11.257 7.96956 10.0647 8.91925 9.18558C9.86893 8.30649 11.157 7.81262 12.5 7.81262C13.8431 7.81262 15.1311 8.30649 16.0808 9.18558C17.0305 10.0647 17.564 11.257 17.564 12.5002ZM15.032 12.5002C15.0318 11.8784 14.7647 11.2821 14.2896 10.8426C13.8144 10.403 13.1701 10.1562 12.4983 10.1564C11.8266 10.1566 11.1824 10.4038 10.7076 10.8437C10.2328 11.2835 9.96612 11.8799 9.96635 12.5018C9.96657 13.1236 10.2336 13.7198 10.7088 14.1594C10.9441 14.377 11.2233 14.5496 11.5307 14.6674C11.838 14.7851 12.1674 14.8456 12.5 14.8455C12.8326 14.8454 13.162 14.7847 13.4692 14.6668C13.7765 14.5489 14.0557 14.3761 14.2908 14.1583C14.5259 13.9405 14.7124 13.682 14.8395 13.3975C14.9667 13.113 15.0321 12.8081 15.032 12.5002Z" fill="#798488"/>
</svg>
