<svg width="14" height="12" viewBox="0 0 14 12" fill="none" xmlns="http://www.w3.org/2000/svg">
<path d="M12.818 9.58233L7.98232 0.820785C7.84225 0.570874 7.64191 0.363579 7.40123 0.219521C7.16054 0.0754633 6.8879 -0.000335693 6.61041 -0.000335693C6.33293 -0.000335693 6.06029 0.0754633 5.8196 0.219521C5.57891 0.363579 5.37858 0.570874 5.23851 0.820785L0.402847 9.58233C0.26694 9.82485 0.195313 10.1007 0.195312 10.3816C0.195313 10.6626 0.26694 10.9384 0.402847 11.181C0.541358 11.4321 0.741421 11.6403 0.982508 11.7842C1.2236 11.928 1.49703 12.0024 1.77475 11.9996H11.4461C11.7236 12.0022 11.9968 11.9277 12.2377 11.7839C12.4786 11.64 12.6785 11.4319 12.8169 11.181C12.953 10.9385 13.0248 10.6627 13.025 10.3818C13.0252 10.1009 12.9537 9.82495 12.818 9.58233ZM11.6678 10.4881C11.6453 10.5281 11.6129 10.561 11.574 10.5833C11.535 10.6056 11.491 10.6166 11.4466 10.615H1.77475C1.73034 10.6166 1.68635 10.6056 1.64741 10.5833C1.60848 10.561 1.57605 10.5281 1.55356 10.4881C1.53449 10.4557 1.52439 10.4185 1.52439 10.3805C1.52439 10.3425 1.53449 10.3053 1.55356 10.2729L6.38923 1.51135C6.41299 1.47264 6.4457 1.44079 6.48435 1.41873C6.52301 1.39667 6.56636 1.3851 6.61041 1.3851C6.65447 1.3851 6.69782 1.39667 6.73647 1.41873C6.77513 1.44079 6.80784 1.47264 6.8316 1.51135L11.6673 10.2729C11.6864 10.3052 11.6966 10.3424 11.6967 10.3804C11.6968 10.4184 11.6868 10.4557 11.6678 10.4881Z" fill="white"/>
</svg>
