<svg width="14" height="12" viewBox="0 0 14 12" fill="none" xmlns="http://www.w3.org/2000/svg">
<path d="M0.402294 2.417L5.23796 11.1785C5.37802 11.4285 5.57836 11.6358 5.81905 11.7798C6.05974 11.9239 6.33238 11.9997 6.60986 11.9997C6.88734 11.9997 7.15999 11.9239 7.40067 11.7798C7.64136 11.6358 7.8417 11.4285 7.98176 11.1785L12.8174 2.417C12.9533 2.17448 13.025 1.89861 13.025 1.61769C13.025 1.33676 12.9533 1.06089 12.8174 0.818377C12.6789 0.567221 12.4789 0.359033 12.2378 0.215172C11.9967 0.071311 11.7232 -0.00304317 11.4455 -0.000260353L1.7742 -0.000260353C1.49666 -0.00283718 1.22346 0.0716133 0.982582 0.215464C0.741707 0.359314 0.541819 0.567392 0.403399 0.818377C0.267324 1.06079 0.195507 1.33661 0.195313 1.61753C0.195118 1.89846 0.266555 2.17438 0.402294 2.417ZM1.55246 1.51125C1.57495 1.47126 1.60737 1.43836 1.64631 1.41602C1.68524 1.39368 1.72923 1.38273 1.77364 1.38433L11.4455 1.38433C11.4899 1.38273 11.5339 1.39368 11.5729 1.41602C11.6118 1.43836 11.6442 1.47126 11.6667 1.51125C11.6858 1.54361 11.6959 1.58085 11.6959 1.61884C11.6959 1.65683 11.6858 1.69407 11.6667 1.72643L6.83105 10.488C6.80729 10.5267 6.77457 10.5585 6.73592 10.5806C6.69727 10.6027 6.65392 10.6142 6.60986 10.6142C6.5658 10.6142 6.52245 10.6027 6.4838 10.5806C6.44515 10.5585 6.41244 10.5267 6.38868 10.488L1.55301 1.72643C1.53385 1.69413 1.52366 1.65691 1.52356 1.61892C1.52346 1.58093 1.53346 1.54366 1.55246 1.51125Z" fill="white"/>
</svg>
