<svg width="25" height="17" viewBox="0 0 25 17" fill="none" xmlns="http://www.w3.org/2000/svg">
<path d="M11.435 11.6728C12.5004 10.915 13.3092 9.81089 13.7419 8.52386C14.1746 7.23683 14.2082 5.83518 13.8377 4.52618C13.4672 3.21718 12.7123 2.07032 11.6846 1.25521C10.6569 0.440097 9.41104 0 8.13117 0C6.85129 0 5.60539 0.440097 4.5777 1.25521C3.55002 2.07032 2.79511 3.21718 2.42461 4.52618C2.05412 5.83518 2.0877 7.23683 2.52041 8.52386C2.95311 9.81089 3.76195 10.915 4.82733 11.6728C2.90017 12.4318 1.25432 13.8362 0.135386 15.6765C0.076578 15.7699 0.0357302 15.8748 0.0152165 15.9852C-0.00529715 16.0957 -0.00506748 16.2093 0.0158922 16.3196C0.0368518 16.4299 0.0781234 16.5347 0.137308 16.6278C0.196492 16.7209 0.272409 16.8006 0.360645 16.862C0.448881 16.9235 0.547677 16.9657 0.651289 16.986C0.754901 17.0064 0.861263 17.0045 0.964192 16.9805C1.06712 16.9565 1.16457 16.911 1.25086 16.8464C1.33715 16.7818 1.41057 16.6996 1.46686 16.6044C2.18862 15.4183 3.17626 14.4436 4.34009 13.7688C5.50391 13.094 6.80705 12.7406 8.13117 12.7406C9.45528 12.7406 10.7584 13.094 11.9222 13.7688C13.0861 14.4436 14.0737 15.4183 14.7955 16.6044C14.9121 16.7896 15.0922 16.9183 15.2968 16.9627C15.5015 17.0071 15.7143 16.9636 15.8893 16.8417C16.0642 16.7198 16.1872 16.5292 16.2317 16.3112C16.2762 16.0931 16.2385 15.8651 16.1269 15.6765C15.008 13.8362 13.3622 12.4318 11.435 11.6728ZM3.75917 6.3728C3.75917 5.44886 4.01559 4.54568 4.49599 3.77746C4.97639 3.00923 5.6592 2.41048 6.45808 2.0569C7.25695 1.70333 8.13602 1.61082 8.9841 1.79107C9.83218 1.97132 10.6112 2.41624 11.2226 3.06956C11.8341 3.72288 12.2505 4.55525 12.4192 5.46144C12.5878 6.36762 12.5013 7.3069 12.1704 8.1605C11.8395 9.0141 11.2791 9.74369 10.5601 10.257C9.84115 10.7703 8.99587 11.0443 8.13117 11.0443C6.97205 11.0429 5.86078 10.5503 5.04115 9.67449C4.22153 8.79872 3.76049 7.61132 3.75917 6.3728ZM24.6394 16.8518C24.4629 16.9748 24.2478 17.0179 24.0415 16.9715C23.8352 16.9251 23.6546 16.7931 23.5395 16.6044C22.8186 15.4176 21.8311 14.4424 20.667 13.768C19.5029 13.0935 18.1994 12.7411 16.8752 12.743C16.6643 12.743 16.4621 12.6535 16.3131 12.4942C16.164 12.335 16.0802 12.1189 16.0802 11.8937C16.0802 11.6684 16.164 11.4523 16.3131 11.2931C16.4621 11.1338 16.6643 11.0443 16.8752 11.0443C17.519 11.0436 18.1548 10.8911 18.737 10.5974C19.3193 10.3038 19.8337 9.8764 20.2434 9.34575C20.6531 8.81509 20.9481 8.19429 21.1073 7.52769C21.2665 6.8611 21.2859 6.16516 21.1642 5.48962C21.0425 4.81407 20.7826 4.1756 20.4032 3.6198C20.0237 3.064 19.5341 2.60461 18.9693 2.27445C18.4044 1.94429 17.7783 1.7515 17.1356 1.70987C16.4929 1.66824 15.8496 1.77879 15.2516 2.03362C15.154 2.07866 15.0491 2.10236 14.9429 2.10332C14.8366 2.10428 14.7313 2.08248 14.6331 2.03921C14.5349 1.99593 14.4458 1.93207 14.3711 1.85138C14.2964 1.77069 14.2375 1.67482 14.1981 1.56943C14.1586 1.46405 14.1393 1.35128 14.1414 1.23779C14.1434 1.1243 14.1667 1.0124 14.2099 0.908697C14.2531 0.804992 14.3153 0.711589 14.3928 0.634005C14.4703 0.556422 14.5617 0.496232 14.6613 0.456993C16.03 -0.126252 17.5524 -0.14724 18.9347 0.398076C20.317 0.943392 21.4614 2.01637 22.147 3.41003C22.8326 4.80368 23.0109 6.41926 22.6475 7.94509C22.2841 9.47092 21.4047 10.7989 20.179 11.6728C22.1062 12.4318 23.752 13.8362 24.8709 15.6765C24.9861 15.8652 25.0264 16.095 24.983 16.3154C24.9395 16.5358 24.816 16.7287 24.6394 16.8518Z" fill="#798488"/>
</svg>
